<mxfile host="app.diagrams.net" modified="2023-02-16T17:50:54.762Z" agent="5.0 (X11; Linux x86_64) AppleWebKit/537.36 (KHTML, like Gecko) Chrome/110.0.0.0 Safari/537.36 Edg/110.0.1587.41" etag="NpQg8eUAAZdIccsxLmGm" version="20.8.20" type="github">
  <diagram name="Page-1" id="sNNtPzumpdAR1uJNf4cF">
    <mxGraphModel dx="1594" dy="984" grid="1" gridSize="10" guides="1" tooltips="1" connect="1" arrows="1" fold="1" page="1" pageScale="1" pageWidth="3300" pageHeight="2339" math="0" shadow="0">
      <root>
        <mxCell id="0" />
        <mxCell id="1" parent="0" />
        <mxCell id="7VVrD5wAg-Hy9BpYoBc0-28" style="edgeStyle=orthogonalEdgeStyle;rounded=0;orthogonalLoop=1;jettySize=auto;html=1;fontColor=#000000;" edge="1" parent="1" source="7VVrD5wAg-Hy9BpYoBc0-1" target="7VVrD5wAg-Hy9BpYoBc0-26">
          <mxGeometry relative="1" as="geometry" />
        </mxCell>
        <mxCell id="7VVrD5wAg-Hy9BpYoBc0-29" style="edgeStyle=orthogonalEdgeStyle;rounded=0;orthogonalLoop=1;jettySize=auto;html=1;entryX=1;entryY=0.5;entryDx=0;entryDy=0;fontColor=#000000;" edge="1" parent="1" source="7VVrD5wAg-Hy9BpYoBc0-1" target="7VVrD5wAg-Hy9BpYoBc0-22">
          <mxGeometry relative="1" as="geometry">
            <Array as="points">
              <mxPoint x="234" y="270" />
              <mxPoint x="234" y="237" />
            </Array>
          </mxGeometry>
        </mxCell>
        <mxCell id="7VVrD5wAg-Hy9BpYoBc0-30" style="edgeStyle=orthogonalEdgeStyle;rounded=0;orthogonalLoop=1;jettySize=auto;html=1;exitX=0;exitY=0.75;exitDx=0;exitDy=0;fontColor=#000000;" edge="1" parent="1" source="7VVrD5wAg-Hy9BpYoBc0-1" target="7VVrD5wAg-Hy9BpYoBc0-25">
          <mxGeometry relative="1" as="geometry" />
        </mxCell>
        <mxCell id="7VVrD5wAg-Hy9BpYoBc0-31" style="edgeStyle=orthogonalEdgeStyle;rounded=0;orthogonalLoop=1;jettySize=auto;html=1;exitX=0.25;exitY=1;exitDx=0;exitDy=0;entryX=1;entryY=0.5;entryDx=0;entryDy=0;fontColor=#000000;" edge="1" parent="1" source="7VVrD5wAg-Hy9BpYoBc0-1" target="7VVrD5wAg-Hy9BpYoBc0-16">
          <mxGeometry relative="1" as="geometry" />
        </mxCell>
        <mxCell id="7VVrD5wAg-Hy9BpYoBc0-32" style="edgeStyle=orthogonalEdgeStyle;rounded=0;orthogonalLoop=1;jettySize=auto;html=1;exitX=0.75;exitY=1;exitDx=0;exitDy=0;entryX=0;entryY=0.5;entryDx=0;entryDy=0;fontColor=#000000;" edge="1" parent="1" source="7VVrD5wAg-Hy9BpYoBc0-1" target="7VVrD5wAg-Hy9BpYoBc0-9">
          <mxGeometry relative="1" as="geometry" />
        </mxCell>
        <mxCell id="7VVrD5wAg-Hy9BpYoBc0-33" style="edgeStyle=orthogonalEdgeStyle;rounded=0;orthogonalLoop=1;jettySize=auto;html=1;exitX=1;exitY=0.75;exitDx=0;exitDy=0;entryX=0;entryY=0.5;entryDx=0;entryDy=0;fontColor=#000000;" edge="1" parent="1" source="7VVrD5wAg-Hy9BpYoBc0-1" target="7VVrD5wAg-Hy9BpYoBc0-24">
          <mxGeometry relative="1" as="geometry" />
        </mxCell>
        <mxCell id="7VVrD5wAg-Hy9BpYoBc0-34" style="edgeStyle=orthogonalEdgeStyle;rounded=0;orthogonalLoop=1;jettySize=auto;html=1;exitX=1;exitY=0.25;exitDx=0;exitDy=0;entryX=0;entryY=0.5;entryDx=0;entryDy=0;fontColor=#000000;" edge="1" parent="1" source="7VVrD5wAg-Hy9BpYoBc0-1" target="7VVrD5wAg-Hy9BpYoBc0-18">
          <mxGeometry relative="1" as="geometry" />
        </mxCell>
        <mxCell id="7VVrD5wAg-Hy9BpYoBc0-36" style="edgeStyle=orthogonalEdgeStyle;rounded=0;orthogonalLoop=1;jettySize=auto;html=1;fontColor=#000000;" edge="1" parent="1" source="7VVrD5wAg-Hy9BpYoBc0-1" target="7VVrD5wAg-Hy9BpYoBc0-20">
          <mxGeometry relative="1" as="geometry" />
        </mxCell>
        <mxCell id="7VVrD5wAg-Hy9BpYoBc0-38" style="edgeStyle=orthogonalEdgeStyle;rounded=0;orthogonalLoop=1;jettySize=auto;html=1;exitX=0.75;exitY=0;exitDx=0;exitDy=0;entryX=0;entryY=0.5;entryDx=0;entryDy=0;fontColor=#000000;" edge="1" parent="1" source="7VVrD5wAg-Hy9BpYoBc0-1" target="7VVrD5wAg-Hy9BpYoBc0-19">
          <mxGeometry relative="1" as="geometry" />
        </mxCell>
        <mxCell id="7VVrD5wAg-Hy9BpYoBc0-39" style="edgeStyle=orthogonalEdgeStyle;rounded=0;orthogonalLoop=1;jettySize=auto;html=1;exitX=0.25;exitY=0;exitDx=0;exitDy=0;entryX=0.999;entryY=0.44;entryDx=0;entryDy=0;entryPerimeter=0;fontColor=#000000;" edge="1" parent="1" source="7VVrD5wAg-Hy9BpYoBc0-1" target="7VVrD5wAg-Hy9BpYoBc0-21">
          <mxGeometry relative="1" as="geometry" />
        </mxCell>
        <mxCell id="7VVrD5wAg-Hy9BpYoBc0-1" value="Login" style="rounded=0;whiteSpace=wrap;html=1;fontColor=#000000;fillColor=#e3c800;strokeColor=#B09500;" vertex="1" parent="1">
          <mxGeometry x="265" y="254" width="120" height="60" as="geometry" />
        </mxCell>
        <mxCell id="7VVrD5wAg-Hy9BpYoBc0-9" value="Controlar Estado" style="ellipse;whiteSpace=wrap;html=1;fillColor=#e1d5e7;strokeColor=#9673a6;fontColor=#000000;" vertex="1" parent="1">
          <mxGeometry x="406.11" y="390" width="142.22" height="74" as="geometry" />
        </mxCell>
        <mxCell id="7VVrD5wAg-Hy9BpYoBc0-16" value="Regras de Negocio" style="ellipse;whiteSpace=wrap;html=1;fillColor=#dae8fc;strokeColor=#6c8ebf;fontColor=#000000;" vertex="1" parent="1">
          <mxGeometry x="100" y="390" width="142.22" height="74" as="geometry" />
        </mxCell>
        <mxCell id="7VVrD5wAg-Hy9BpYoBc0-18" value="Tratar Resposta &lt;br&gt;da API" style="ellipse;whiteSpace=wrap;html=1;fillColor=#d5e8d4;strokeColor=#82b366;fontColor=#000000;" vertex="1" parent="1">
          <mxGeometry x="440" y="200" width="142.22" height="74" as="geometry" />
        </mxCell>
        <mxCell id="7VVrD5wAg-Hy9BpYoBc0-19" value="Validar Senha" style="ellipse;whiteSpace=wrap;html=1;fillColor=#fff2cc;strokeColor=#d6b656;fontColor=#000000;" vertex="1" parent="1">
          <mxGeometry x="406.11" y="90" width="142.22" height="74" as="geometry" />
        </mxCell>
        <mxCell id="7VVrD5wAg-Hy9BpYoBc0-20" value="Renderizar View" style="ellipse;whiteSpace=wrap;html=1;fillColor=#e1d5e7;strokeColor=#9673a6;fontColor=#000000;" vertex="1" parent="1">
          <mxGeometry x="253" y="20" width="142.22" height="74" as="geometry" />
        </mxCell>
        <mxCell id="7VVrD5wAg-Hy9BpYoBc0-21" value="Validar Email" style="ellipse;whiteSpace=wrap;html=1;fillColor=#fff2cc;strokeColor=#d6b656;fontColor=#000000;" vertex="1" parent="1">
          <mxGeometry x="100" y="80" width="142.22" height="74" as="geometry" />
        </mxCell>
        <mxCell id="7VVrD5wAg-Hy9BpYoBc0-22" value="Gravar dados &lt;br&gt;no cache" style="ellipse;whiteSpace=wrap;html=1;fillColor=#e1d5e7;strokeColor=#9673a6;fontColor=#000000;" vertex="1" parent="1">
          <mxGeometry x="60" y="200" width="142.22" height="74" as="geometry" />
        </mxCell>
        <mxCell id="7VVrD5wAg-Hy9BpYoBc0-24" value="Tratar Erros&amp;nbsp;&lt;br&gt;da API" style="ellipse;whiteSpace=wrap;html=1;fillColor=#d5e8d4;strokeColor=#82b366;fontColor=#000000;" vertex="1" parent="1">
          <mxGeometry x="440" y="290" width="142.22" height="74" as="geometry" />
        </mxCell>
        <mxCell id="7VVrD5wAg-Hy9BpYoBc0-25" value="Navegação" style="ellipse;whiteSpace=wrap;html=1;fillColor=#e1d5e7;strokeColor=#9673a6;fontColor=#000000;" vertex="1" parent="1">
          <mxGeometry x="60" y="290" width="142.22" height="74" as="geometry" />
        </mxCell>
        <mxCell id="7VVrD5wAg-Hy9BpYoBc0-26" value="Comunicar com&amp;nbsp;&lt;br&gt;API" style="ellipse;whiteSpace=wrap;html=1;fillColor=#f8cecc;strokeColor=#b85450;fontColor=#000000;" vertex="1" parent="1">
          <mxGeometry x="253.89" y="474" width="142.22" height="74" as="geometry" />
        </mxCell>
        <mxCell id="7VVrD5wAg-Hy9BpYoBc0-40" value="" style="rounded=0;whiteSpace=wrap;html=1;fillColor=#f8cecc;strokeColor=#b85450;" vertex="1" parent="1">
          <mxGeometry x="330" y="680" width="360" height="130" as="geometry" />
        </mxCell>
        <mxCell id="7VVrD5wAg-Hy9BpYoBc0-75" style="edgeStyle=orthogonalEdgeStyle;rounded=0;orthogonalLoop=1;jettySize=auto;html=1;fillColor=#f8cecc;strokeColor=#b85450;" edge="1" parent="1" source="7VVrD5wAg-Hy9BpYoBc0-41" target="7VVrD5wAg-Hy9BpYoBc0-44">
          <mxGeometry relative="1" as="geometry" />
        </mxCell>
        <mxCell id="7VVrD5wAg-Hy9BpYoBc0-41" value="AxiosHttpClient" style="rounded=0;whiteSpace=wrap;html=1;shadow=0;fillColor=#f5f5f5;fontColor=#333333;strokeColor=#666666;" vertex="1" parent="1">
          <mxGeometry x="452.31" y="721.25" width="115.38" height="47.5" as="geometry" />
        </mxCell>
        <mxCell id="7VVrD5wAg-Hy9BpYoBc0-44" value="Axios" style="rounded=0;whiteSpace=wrap;html=1;strokeColor=#8a8a8a;fillColor=#7f7a7a;" vertex="1" parent="1">
          <mxGeometry x="160" y="721.25" width="115.38" height="47.5" as="geometry" />
        </mxCell>
        <mxCell id="7VVrD5wAg-Hy9BpYoBc0-45" value="" style="rounded=0;whiteSpace=wrap;html=1;fillColor=#d5e8d4;strokeColor=#82b366;" vertex="1" parent="1">
          <mxGeometry x="330" y="880" width="360" height="130" as="geometry" />
        </mxCell>
        <mxCell id="7VVrD5wAg-Hy9BpYoBc0-46" value="HttpPostClient" style="rounded=0;whiteSpace=wrap;html=1;dashed=1;dashPattern=8 8;shadow=0;fillColor=#f5f5f5;fontColor=#333333;strokeColor=#666666;" vertex="1" parent="1">
          <mxGeometry x="370" y="926.25" width="115.38" height="37.5" as="geometry" />
        </mxCell>
        <mxCell id="7VVrD5wAg-Hy9BpYoBc0-65" style="edgeStyle=orthogonalEdgeStyle;rounded=0;orthogonalLoop=1;jettySize=auto;html=1;" edge="1" parent="1" source="7VVrD5wAg-Hy9BpYoBc0-47" target="7VVrD5wAg-Hy9BpYoBc0-46">
          <mxGeometry relative="1" as="geometry" />
        </mxCell>
        <mxCell id="7VVrD5wAg-Hy9BpYoBc0-47" value="RemoteAuthentication" style="rounded=0;whiteSpace=wrap;html=1;shadow=0;fillColor=#f5f5f5;fontColor=#333333;strokeColor=#666666;" vertex="1" parent="1">
          <mxGeometry x="520" y="926.25" width="140" height="37.5" as="geometry" />
        </mxCell>
        <mxCell id="7VVrD5wAg-Hy9BpYoBc0-53" value="" style="rounded=0;whiteSpace=wrap;html=1;fillColor=#fff2cc;strokeColor=#d6b656;" vertex="1" parent="1">
          <mxGeometry x="780" y="880" width="360" height="130" as="geometry" />
        </mxCell>
        <mxCell id="7VVrD5wAg-Hy9BpYoBc0-54" value="RequiredFieldValidation" style="rounded=0;whiteSpace=wrap;html=1;shadow=0;fillColor=#f5f5f5;fontColor=#333333;strokeColor=#666666;" vertex="1" parent="1">
          <mxGeometry x="820" y="921.25" width="140" height="47.5" as="geometry" />
        </mxCell>
        <mxCell id="7VVrD5wAg-Hy9BpYoBc0-55" value="" style="rounded=0;whiteSpace=wrap;html=1;fillColor=#e1d5e7;strokeColor=#9673a6;" vertex="1" parent="1">
          <mxGeometry x="780" y="1080" width="360" height="130" as="geometry" />
        </mxCell>
        <mxCell id="7VVrD5wAg-Hy9BpYoBc0-56" value="Validation" style="rounded=1;whiteSpace=wrap;html=1;dashed=1;dashPattern=8 8;shadow=0;glass=0;fillColor=#f5f5f5;fontColor=#333333;strokeColor=#666666;" vertex="1" parent="1">
          <mxGeometry x="990" y="1126.25" width="115.38" height="37.5" as="geometry" />
        </mxCell>
        <mxCell id="7VVrD5wAg-Hy9BpYoBc0-62" style="edgeStyle=orthogonalEdgeStyle;rounded=0;orthogonalLoop=1;jettySize=auto;html=1;" edge="1" parent="1" source="7VVrD5wAg-Hy9BpYoBc0-57" target="7VVrD5wAg-Hy9BpYoBc0-56">
          <mxGeometry relative="1" as="geometry" />
        </mxCell>
        <mxCell id="7VVrD5wAg-Hy9BpYoBc0-57" value="Login" style="rounded=0;whiteSpace=wrap;html=1;shadow=0;fillColor=#f5f5f5;fontColor=#333333;strokeColor=#666666;" vertex="1" parent="1">
          <mxGeometry x="810" y="1126.25" width="140" height="37.5" as="geometry" />
        </mxCell>
        <mxCell id="7VVrD5wAg-Hy9BpYoBc0-58" value="" style="rounded=0;whiteSpace=wrap;html=1;fillColor=#dae8fc;strokeColor=#6c8ebf;" vertex="1" parent="1">
          <mxGeometry x="330" y="1080" width="360" height="130" as="geometry" />
        </mxCell>
        <mxCell id="7VVrD5wAg-Hy9BpYoBc0-59" value="Authentication" style="rounded=1;whiteSpace=wrap;html=1;strokeColor=#666666;dashed=1;shadow=0;fillColor=#f5f5f5;glass=0;fontColor=#333333;" vertex="1" parent="1">
          <mxGeometry x="452.31" y="1121.25" width="115.38" height="47.5" as="geometry" />
        </mxCell>
        <mxCell id="7VVrD5wAg-Hy9BpYoBc0-60" value="EmailFiieldValidation" style="rounded=0;whiteSpace=wrap;html=1;shadow=0;fillColor=#f5f5f5;fontColor=#333333;strokeColor=#666666;" vertex="1" parent="1">
          <mxGeometry x="980" y="921.25" width="135.38" height="47.5" as="geometry" />
        </mxCell>
        <mxCell id="7VVrD5wAg-Hy9BpYoBc0-63" style="edgeStyle=orthogonalEdgeStyle;rounded=0;orthogonalLoop=1;jettySize=auto;html=1;fillColor=#e1d5e7;strokeColor=#9673a6;" edge="1" parent="1" source="7VVrD5wAg-Hy9BpYoBc0-57" target="7VVrD5wAg-Hy9BpYoBc0-59">
          <mxGeometry relative="1" as="geometry" />
        </mxCell>
        <mxCell id="7VVrD5wAg-Hy9BpYoBc0-69" value="Infra" style="text;html=1;align=right;verticalAlign=middle;resizable=0;points=[];autosize=1;strokeColor=none;fillColor=none;" vertex="1" parent="1">
          <mxGeometry x="640" y="650" width="50" height="30" as="geometry" />
        </mxCell>
        <mxCell id="7VVrD5wAg-Hy9BpYoBc0-70" value="Data" style="text;html=1;align=right;verticalAlign=middle;resizable=0;points=[];autosize=1;strokeColor=none;fillColor=none;" vertex="1" parent="1">
          <mxGeometry x="640" y="850" width="50" height="30" as="geometry" />
        </mxCell>
        <mxCell id="7VVrD5wAg-Hy9BpYoBc0-71" value="Presentation" style="text;html=1;align=right;verticalAlign=middle;resizable=0;points=[];autosize=1;strokeColor=none;fillColor=none;" vertex="1" parent="1">
          <mxGeometry x="1050" y="1050" width="90" height="30" as="geometry" />
        </mxCell>
        <mxCell id="7VVrD5wAg-Hy9BpYoBc0-72" value="Domain" style="text;html=1;align=right;verticalAlign=middle;resizable=0;points=[];autosize=1;strokeColor=none;fillColor=none;" vertex="1" parent="1">
          <mxGeometry x="630" y="1050" width="60" height="30" as="geometry" />
        </mxCell>
        <mxCell id="7VVrD5wAg-Hy9BpYoBc0-73" value="Validation" style="text;html=1;align=right;verticalAlign=middle;resizable=0;points=[];autosize=1;strokeColor=none;fillColor=none;" vertex="1" parent="1">
          <mxGeometry x="1060" y="850" width="80" height="30" as="geometry" />
        </mxCell>
        <mxCell id="7VVrD5wAg-Hy9BpYoBc0-74" style="edgeStyle=orthogonalEdgeStyle;rounded=0;orthogonalLoop=1;jettySize=auto;html=1;fillColor=#d5e8d4;strokeColor=#82b366;" edge="1" parent="1" source="7VVrD5wAg-Hy9BpYoBc0-47" target="7VVrD5wAg-Hy9BpYoBc0-59">
          <mxGeometry relative="1" as="geometry" />
        </mxCell>
        <mxCell id="7VVrD5wAg-Hy9BpYoBc0-66" style="edgeStyle=orthogonalEdgeStyle;rounded=0;orthogonalLoop=1;jettySize=auto;html=1;fillColor=#fff2cc;strokeColor=#d6b656;" edge="1" parent="1" source="7VVrD5wAg-Hy9BpYoBc0-60" target="7VVrD5wAg-Hy9BpYoBc0-56">
          <mxGeometry relative="1" as="geometry" />
        </mxCell>
        <mxCell id="7VVrD5wAg-Hy9BpYoBc0-67" style="edgeStyle=orthogonalEdgeStyle;rounded=0;orthogonalLoop=1;jettySize=auto;html=1;entryX=0.292;entryY=-0.052;entryDx=0;entryDy=0;entryPerimeter=0;fillColor=#fff2cc;strokeColor=#d6b656;" edge="1" parent="1" source="7VVrD5wAg-Hy9BpYoBc0-54" target="7VVrD5wAg-Hy9BpYoBc0-56">
          <mxGeometry relative="1" as="geometry">
            <Array as="points">
              <mxPoint x="890" y="1040" />
              <mxPoint x="1024" y="1040" />
              <mxPoint x="1024" y="1090" />
            </Array>
          </mxGeometry>
        </mxCell>
        <mxCell id="7VVrD5wAg-Hy9BpYoBc0-68" style="edgeStyle=orthogonalEdgeStyle;rounded=0;orthogonalLoop=1;jettySize=auto;html=1;fillColor=#f8cecc;strokeColor=#b85450;" edge="1" parent="1" source="7VVrD5wAg-Hy9BpYoBc0-41" target="7VVrD5wAg-Hy9BpYoBc0-46">
          <mxGeometry relative="1" as="geometry" />
        </mxCell>
        <mxCell id="7VVrD5wAg-Hy9BpYoBc0-76" value="" style="rounded=0;whiteSpace=wrap;html=1;shadow=0;glass=0;dashed=1;strokeColor=#BD7000;fontColor=#000000;fillColor=#f0a30a;" vertex="1" parent="1">
          <mxGeometry x="1310" y="680" width="210" height="530" as="geometry" />
        </mxCell>
        <mxCell id="7VVrD5wAg-Hy9BpYoBc0-77" value="Main" style="text;html=1;align=right;verticalAlign=middle;resizable=0;points=[];autosize=1;strokeColor=none;fillColor=none;" vertex="1" parent="1">
          <mxGeometry x="1710" y="797" width="50" height="30" as="geometry" />
        </mxCell>
        <mxCell id="7VVrD5wAg-Hy9BpYoBc0-79" value="LoginFactory" style="rounded=0;whiteSpace=wrap;html=1;shadow=0;fillColor=#f5f5f5;fontColor=#333333;strokeColor=#666666;" vertex="1" parent="1">
          <mxGeometry x="1345" y="700" width="140" height="47.5" as="geometry" />
        </mxCell>
      </root>
    </mxGraphModel>
  </diagram>
</mxfile>
